<?xml version="1.0" standalone="no"?>
<!DOCTYPE svg PUBLIC "-//W3C//DTD SVG 20010904//EN"
 "http://www.w3.org/TR/2001/REC-SVG-20010904/DTD/svg10.dtd">
<svg version="1.0" xmlns="http://www.w3.org/2000/svg"
 width="795.000000pt" height="795.000000pt" viewBox="0 0 795.000000 795.000000"
 preserveAspectRatio="xMidYMid meet">
<metadata>
Created by potrace 1.14, written by Peter Selinger 2001-2017
</metadata>
<g transform="translate(0.000000,795.000000) scale(0.100000,-0.100000)"
fill="#000000" stroke="none">
<path d="M3905 7623 c-58 -16 -124 -43 -145 -60 -189 -147 -300 -288 -565
-712 -42 -68 -91 -145 -109 -170 -34 -49 -159 -252 -271 -441 -37 -63 -72
-116 -77 -118 -4 -2 -8 -8 -8 -13 0 -19 -278 -440 -294 -444 -6 -1 -29 -8 -51
-14 -162 -46 -574 -155 -685 -181 -139 -33 -999 -247 -1127 -280 -95 -24 -160
-55 -263 -124 -138 -94 -194 -164 -225 -285 -24 -93 -24 -154 1 -245 27 -102
52 -160 105 -239 56 -82 218 -292 266 -343 159 -170 274 -296 307 -334 21 -25
118 -128 215 -229 321 -337 342 -359 426 -455 39 -44 80 -91 92 -104 20 -21
22 -33 18 -83 -3 -32 -7 -98 -10 -146 -5 -99 -13 -214 -21 -318 -3 -38 -7 -99
-8 -135 -2 -36 -6 -99 -10 -140 -3 -41 -8 -120 -12 -175 -3 -55 -8 -116 -10
-135 -2 -19 -6 -78 -9 -130 -4 -89 -8 -148 -21 -325 -2 -38 -6 -101 -8 -140
-2 -38 -7 -104 -10 -145 -16 -197 -16 -261 -2 -317 8 -32 17 -70 20 -84 18
-79 168 -197 287 -225 117 -27 202 -21 405 31 167 43 334 107 659 255 22 10
94 40 160 68 66 27 140 59 165 70 25 11 135 57 245 102 110 44 229 93 265 108
36 15 67 27 70 28 3 0 16 5 30 11 206 87 272 113 283 113 12 0 171 -62 292
-114 17 -7 62 -26 100 -41 39 -15 84 -33 100 -40 17 -7 104 -43 195 -80 91
-36 199 -81 240 -100 41 -18 116 -50 165 -70 50 -20 108 -45 130 -56 51 -24
206 -91 315 -135 47 -20 96 -40 110 -46 14 -6 30 -13 35 -14 6 -2 60 -19 120
-38 293 -91 472 -88 619 12 172 116 197 260 151 842 -2 30 -7 93 -10 140 -14
230 -21 335 -30 435 -2 28 -7 104 -10 170 -4 66 -8 134 -10 150 -2 17 -6 77
-10 135 -3 58 -8 128 -10 155 -2 28 -7 95 -10 150 -3 55 -8 130 -11 167 -5 64
-4 68 26 100 17 18 38 42 48 53 160 180 203 226 237 260 130 131 337 349 445
469 138 154 150 166 267 293 84 90 227 269 287 358 85 126 144 293 140 392 -6
121 -53 234 -129 309 -72 71 -221 163 -315 194 -73 24 -754 196 -1025 260
-166 39 -299 72 -365 90 -36 10 -103 28 -150 40 -47 12 -92 25 -100 28 -8 3
-22 6 -31 8 -8 2 -42 11 -75 20 -32 9 -88 24 -124 33 l-65 17 -90 135 c-90
134 -229 350 -264 411 -10 18 -51 87 -91 153 -40 66 -80 133 -89 148 -9 15
-58 91 -108 169 -51 77 -93 143 -93 146 0 3 -11 20 -25 38 -14 18 -25 35 -25
39 0 3 -8 18 -19 33 -10 15 -56 83 -101 152 -168 253 -288 390 -409 468 -94
61 -221 88 -306 65z"/>
</g>
</svg>
